<?xml version="1.0" standalone="no"?>
<!DOCTYPE svg PUBLIC "-//W3C//DTD SVG 20010904//EN"
 "http://www.w3.org/TR/2001/REC-SVG-20010904/DTD/svg10.dtd">
<svg version="1.0" xmlns="http://www.w3.org/2000/svg"
 width="512.000000pt" height="512.000000pt" viewBox="0 0 512.000000 512.000000"
 preserveAspectRatio="xMidYMid meet">

<g transform="translate(0.000000,512.000000) scale(0.100000,-0.100000)"
fill="#000000" stroke="none">
<path d="M1854 5008 c-146 -204 -236 -357 -312 -523 -58 -130 -77 -186 -93
-279 -29 -169 40 -418 150 -546 l38 -45 -5 96 c-6 117 12 180 95 338 50 97
184 304 204 316 11 8 180 -247 229 -345 67 -135 83 -199 78 -309 l-5 -96 38
45 c110 128 179 377 150 546 -16 93 -35 149 -93 279 -84 184 -223 410 -380
618 -13 17 -20 9 -94 -95z"/>
<path d="M1858 3638 l-3 -363 -247 -3 -248 -2 0 -1635 0 -1635 575 0 575 0 0
1635 0 1635 -247 2 -248 3 -3 363 -2 362 -75 0 -75 0 -2 -362z"/>
<path d="M3237 3588 c-220 -330 -283 -510 -244 -693 18 -84 57 -170 101 -221
l32 -37 -6 49 c-8 72 4 132 44 219 40 86 160 275 176 275 15 0 128 -173 171
-264 45 -95 60 -162 50 -229 l-8 -48 28 27 c37 36 85 136 105 220 32 139 4
273 -101 471 -59 111 -231 373 -245 373 -5 0 -51 -64 -103 -142z"/>
<path d="M3280 2655 l0 -265 -180 0 -180 0 0 -1195 0 -1195 420 0 420 0 0
1195 0 1195 -180 0 -180 0 0 265 0 265 -60 0 -60 0 0 -265z"/>
</g>
</svg>
