<?xml version="1.0" encoding="iso-8859-1"?>
<!-- Generator: Adobe Illustrator 19.0.0, SVG Export Plug-In . SVG Version: 6.00 Build 0)  -->
<svg version="1.1" id="Layer_1" xmlns="http://www.w3.org/2000/svg" xmlns:xlink="http://www.w3.org/1999/xlink" x="0px" y="0px"
	 viewBox="0 0 511.999 511.999" style="enable-background:new 0 0 511.999 511.999;" xml:space="preserve">
<g>
	<g>
		<path d="M490.667,10.666H21.333C9.551,10.666,0,20.218,0,32v448c0,11.782,9.551,21.333,21.333,21.333h469.333
			c11.782,0,21.333-9.551,21.333-21.333V32C512,20.218,502.449,10.666,490.667,10.666z M469.334,458.667L469.334,458.667H42.667
			V53.333h426.667V458.667z"/>
	</g>
</g>
<g>
	<g>
		<path d="M384,96H128c-11.782,0-21.333,9.551-21.333,21.333V160c0,11.782,9.551,21.333,21.333,21.333s21.333-9.551,21.333-21.333
			v-21.333h85.333v234.667h-21.333c-11.782,0-21.333,9.551-21.333,21.333c0,11.782,9.551,21.333,21.333,21.333h85.333
			c11.782,0,21.333-9.551,21.333-21.333c0-11.782-9.551-21.333-21.333-21.333h-21.333V138.667h85.333V160
			c0,11.782,9.551,21.333,21.333,21.333c11.782,0,21.333-9.551,21.333-21.333v-42.667C405.333,105.551,395.782,96,384,96z"/>
	</g>
</g>
<g>
</g>
<g>
</g>
<g>
</g>
<g>
</g>
<g>
</g>
<g>
</g>
<g>
</g>
<g>
</g>
<g>
</g>
<g>
</g>
<g>
</g>
<g>
</g>
<g>
</g>
<g>
</g>
<g>
</g>
</svg>
