<svg width="24" height="24" viewBox="0 0 24 24" fill="none" xmlns="http://www.w3.org/2000/svg">
<circle cx="11.5" cy="11.5" r="10.5" fill="#FF0000"/>
<path d="M9 9.5C9.13261 9.5 9.25979 9.55268 9.35355 9.64645C9.44732 9.74021 9.5 9.86739 9.5 10V16C9.5 16.1326 9.44732 16.2598 9.35355 16.3536C9.25979 16.4473 9.13261 16.5 9 16.5C8.86739 16.5 8.74021 16.4473 8.64645 16.3536C8.55268 16.2598 8.5 16.1326 8.5 16V10C8.5 9.86739 8.55268 9.74021 8.64645 9.64645C8.74021 9.55268 8.86739 9.5 9 9.5V9.5ZM11.5 9.5C11.6326 9.5 11.7598 9.55268 11.8536 9.64645C11.9473 9.74021 12 9.86739 12 10V16C12 16.1326 11.9473 16.2598 11.8536 16.3536C11.7598 16.4473 11.6326 16.5 11.5 16.5C11.3674 16.5 11.2402 16.4473 11.1464 16.3536C11.0527 16.2598 11 16.1326 11 16V10C11 9.86739 11.0527 9.74021 11.1464 9.64645C11.2402 9.55268 11.3674 9.5 11.5 9.5V9.5ZM14.5 10C14.5 9.86739 14.4473 9.74021 14.3536 9.64645C14.2598 9.55268 14.1326 9.5 14 9.5C13.8674 9.5 13.7402 9.55268 13.6464 9.64645C13.5527 9.74021 13.5 9.86739 13.5 10V16C13.5 16.1326 13.5527 16.2598 13.6464 16.3536C13.7402 16.4473 13.8674 16.5 14 16.5C14.1326 16.5 14.2598 16.4473 14.3536 16.3536C14.4473 16.2598 14.5 16.1326 14.5 16V10Z" fill="white"/>
<path fill-rule="evenodd" clip-rule="evenodd" d="M18 7C18 7.26522 17.8946 7.51957 17.7071 7.70711C17.5196 7.89464 17.2652 8 17 8H16.5V17C16.5 17.5304 16.2893 18.0391 15.9142 18.4142C15.5391 18.7893 15.0304 19 14.5 19H8.5C7.96957 19 7.46086 18.7893 7.08579 18.4142C6.71071 18.0391 6.5 17.5304 6.5 17V8H6C5.73478 8 5.48043 7.89464 5.29289 7.70711C5.10536 7.51957 5 7.26522 5 7V6C5 5.73478 5.10536 5.48043 5.29289 5.29289C5.48043 5.10536 5.73478 5 6 5H9.5C9.5 4.73478 9.60536 4.48043 9.79289 4.29289C9.98043 4.10536 10.2348 4 10.5 4H12.5C12.7652 4 13.0196 4.10536 13.2071 4.29289C13.3946 4.48043 13.5 4.73478 13.5 5H17C17.2652 5 17.5196 5.10536 17.7071 5.29289C17.8946 5.48043 18 5.73478 18 6V7ZM7.618 8L7.5 8.059V17C7.5 17.2652 7.60536 17.5196 7.79289 17.7071C7.98043 17.8946 8.23478 18 8.5 18H14.5C14.7652 18 15.0196 17.8946 15.2071 17.7071C15.3946 17.5196 15.5 17.2652 15.5 17V8.059L15.382 8H7.618ZM6 7V6H17V7H6Z" fill="white"/>
</svg>
